<svg version="1.1" xmlns="http://www.w3.org/2000/svg" style="display: block;" viewBox="0 0 2048 2048" width="720" height="720" preserveAspectRatio="none">
<defs>
	<linearGradient id="Gradient1" gradientUnits="userSpaceOnUse" x1="1533.32" y1="555.789" x2="1364.1" y2="493.856">
		<stop class="stop0" offset="0" stop-opacity="1" stop-color="rgb(42,148,150)"/>
		<stop class="stop1" offset="1" stop-opacity="1" stop-color="rgb(105,180,181)"/>
	</linearGradient>
	<linearGradient id="Gradient2" gradientUnits="userSpaceOnUse" x1="1382.88" y1="445.68" x2="1167.31" y2="402.362">
		<stop class="stop0" offset="0" stop-opacity="1" stop-color="rgb(103,178,180)"/>
		<stop class="stop1" offset="1" stop-opacity="1" stop-color="rgb(189,223,226)"/>
	</linearGradient>
	<linearGradient id="Gradient3" gradientUnits="userSpaceOnUse" x1="512.161" y1="560.569" x2="767.502" y2="443.34">
		<stop class="stop0" offset="0" stop-opacity="1" stop-color="rgb(255,198,115)"/>
		<stop class="stop1" offset="1" stop-opacity="1" stop-color="rgb(255,226,179)"/>
	</linearGradient>
	<linearGradient id="Gradient4" gradientUnits="userSpaceOnUse" x1="964.499" y1="412.602" x2="960.144" y2="358.552">
		<stop class="stop0" offset="0" stop-opacity="1" stop-color="rgb(216,218,192)"/>
		<stop class="stop1" offset="1" stop-opacity="1" stop-color="rgb(255,254,249)"/>
	</linearGradient>
</defs>
<path transform="translate(0,0)" fill="rgb(0,0,0)" d="M 1006.65 15.1102 C 1563.56 5.94688 2022.44 450.035 2031.51 1006.95 C 2040.59 1563.87 1596.43 2022.67 1039.51 2031.66 C 482.716 2040.65 24.0358 1596.61 14.9619 1039.81 C 5.88802 483.021 449.856 24.2715 1006.65 15.1102 z"/>
<path transform="translate(0,0)" fill="rgb(254,254,254)" d="M 1291.48 436.364 C 1300.56 437.33 1319.6 438.991 1322.36 449.701 L 1248.48 698.065 C 1237.57 735.058 1222.12 782.443 1213.02 819.392 C 1218.52 825.62 1226.56 831.619 1232.89 837.275 C 1248.97 851.644 1265.78 864.261 1282.59 877.734 C 1311.08 900.563 1338.48 924.763 1364.92 949.732 C 1395.35 978.476 1374.76 992.06 1397.53 1019.29 C 1406.1 1029.55 1423.84 1043.97 1434.57 1053.83 C 1456.94 1074.64 1479.02 1095.75 1500.8 1117.18 C 1509.41 1125.59 1517.87 1133.88 1526.71 1142.64 C 1533.99 1147.52 1559.29 1181.29 1549.19 1189.24 C 1546.55 1191.32 1517.64 1203.41 1509.94 1209.24 C 1496.08 1214.87 1491.6 1243.38 1481.36 1248.79 C 1458.56 1260.84 1414.93 1224.25 1399.97 1215.66 C 1348.32 1186.02 1301.29 1156.33 1246.23 1134.71 C 1223.59 1125.82 1202.24 1132.12 1179.23 1127.02 C 1137.88 1117.31 1121.5 1097.62 1099.84 1064.48 C 1120.42 1036.5 1123.48 999.695 1108.3 968.437 C 1097.47 946.201 1078.25 929.183 1054.86 921.132 C 1030.05 912.589 1005.44 914.793 981.999 926.071 C 980.506 924.225 978.958 922.426 977.355 920.676 C 952.615 894.038 890.733 879.796 855.174 878.815 C 869.801 866.943 947.152 821.525 964.257 815.732 C 997.12 804.6 1033.71 827.342 1059.05 846.352 C 1070.66 855.054 1081.55 865.617 1094.72 871.923 C 1101.25 875.049 1111.92 879.021 1119 875.823 C 1123.43 873.82 1125.52 869.488 1127.47 865.28 C 1133.23 852.845 1137.35 839.127 1142.23 826.279 C 1152.75 798.97 1163.07 771.583 1173.18 744.119 C 1193.05 691.471 1212.57 638.692 1231.75 585.786 C 1234.48 578.331 1248.82 545.725 1246.31 540.481 C 1235.95 540.124 1177.21 618.179 1167.14 630.991 L 1067.9 756.39 C 1060.25 766.15 1047.06 787.39 1035.92 790.858 L 1035.41 789.834 C 1046.74 766.18 1065.15 744.415 1080.25 722.785 C 1099.8 696.479 1117.31 667.791 1137.95 642.335 C 1161 613.901 1181.05 584.252 1202.47 554.739 C 1231.48 514.788 1261.15 475.324 1291.48 436.364 z"/>
<path transform="translate(0,0)" fill="rgb(0,0,0)" d="M 1063.35 884.325 C 1090.06 886.034 1116.91 908.468 1132.95 928.479 C 1151.94 952.183 1160.27 984.563 1163.05 1014.34 C 1201.1 1020.4 1260.28 1039.57 1295.32 1054.87 C 1326.83 1068.63 1421.64 1141.2 1433.39 1170.86 C 1413.53 1156.55 1391.5 1132.34 1371 1116.36 C 1317.55 1074.67 1262.17 1047.84 1195.31 1035.77 C 1180.36 1033.07 1165.28 1028.81 1150.05 1027.55 C 1148.6 972.016 1127.48 928.99 1081.66 896.892 C 1077.54 894.001 1064.79 887.246 1063.35 884.325 z"/>
<path transform="translate(0,0)" fill="rgb(0,0,0)" d="M 1218.03 941.758 C 1227.22 941.311 1251.12 951.338 1262.04 954.734 C 1272.68 957.999 1283.44 960.897 1294.29 963.424 C 1301.47 965.061 1309.15 966.069 1316.47 966.975 C 1345.44 970.562 1362.7 975.298 1344.18 1005.87 C 1353.06 1012.74 1376.38 1028.53 1374.48 1041.29 L 1372.42 1042.72 C 1370.44 1041.65 1338.54 1015.51 1332.96 1011.31 C 1303.79 989.326 1279.89 971.671 1243.1 962.57 C 1231.27 959.644 1218.12 959.175 1206.99 955.941 L 1205.68 955.552 C 1210.16 950.086 1213 946.688 1218.03 941.758 z"/>
<path transform="translate(0,0)" fill="rgb(254,254,254)" d="M 553.611 1144.19 C 587.508 1095.97 722.271 967.33 772.683 938.451 C 774.63 968.729 776.895 1009.32 784.2 1038.83 C 776.653 1047.89 768.806 1057.08 761.619 1066.4 C 779.089 1089.79 795.342 1114.52 810.987 1139.18 C 817.487 1149.43 829.412 1167.46 834.524 1178.36 C 824.085 1211.21 812.143 1248.78 805.348 1282.31 C 816.548 1288.62 835.213 1301.8 845.733 1309.23 C 902.72 1349.45 1004.69 1431.14 1038.4 1492.5 C 1010.14 1481.91 967.283 1459.67 936.27 1446.92 C 795.801 1389.16 688.358 1400.48 550.759 1462.46 C 546.495 1460.1 509.261 1411.72 502.772 1406.52 C 500.198 1404.46 500.719 1403.49 500.922 1401.48 C 497.903 1398.61 493.705 1391.55 491.267 1387.78 C 486.63 1383.08 486.144 1384.24 480.802 1380.74 C 481.034 1376.66 481.182 1375.77 480.455 1371.83 C 478.619 1368.89 474.694 1367.18 471.522 1365.4 C 471.235 1362.93 471.897 1358.9 470.806 1357.14 C 460.262 1340.17 453.384 1322.8 445.032 1305.04 C 467.161 1268.41 513.401 1185.56 544.106 1158.51 C 578.294 1164.22 629.825 1184 663.297 1196.89 C 696.686 1209.74 739.024 1225.6 771.196 1240.68 C 716.088 1192.57 621.27 1168.42 553.611 1144.19 z"/>
<path transform="translate(0,0)" fill="rgb(0,0,0)" d="M 491.267 1387.78 C 553.85 1351.38 623.345 1336.58 694.527 1330.51 C 696.638 1331.31 698.221 1331.79 700.19 1332.91 C 629.956 1346.37 564.125 1367.35 500.922 1401.48 C 497.903 1398.61 493.705 1391.55 491.267 1387.78 z"/>
<path transform="translate(0,0)" fill="rgb(45,43,41)" d="M 694.527 1330.51 C 701.09 1329.89 708.867 1328.71 715.093 1330.76 L 714.563 1330.46 C 710.577 1332.98 704.92 1332.64 700.19 1332.91 C 698.221 1331.79 696.638 1331.31 694.527 1330.51 z"/>
<path transform="translate(0,0)" fill="rgb(254,254,254)" d="M 855.724 887.413 C 858.059 887.277 860.397 887.218 862.736 887.236 C 900.484 887.349 946.539 903.835 973.323 930.641 C 939.599 952.834 922.549 1001.28 936.002 1039.66 C 944.372 1063.09 961.738 1082.22 984.253 1092.8 C 1009.85 1104.79 1035.24 1103.26 1061.19 1093.91 C 1072.28 1113.55 1088.87 1136.79 1097.49 1157.57 C 1099.75 1163.03 1100.21 1190.8 1100.63 1198.34 C 1101.53 1217.65 1103.18 1236.92 1105.59 1256.1 C 1120.09 1365.3 1149.77 1452.51 1201.98 1549.27 C 1191.71 1563.42 1190.68 1569.77 1187 1586.92 C 1170.57 1573.47 1150.74 1561.31 1133.12 1549.48 C 1126.65 1545.15 1108.09 1534.37 1103.42 1529.51 C 1102.41 1525.99 1103.34 1523.33 1104.04 1519.67 C 1093.82 1513 1089.31 1509.08 1076.95 1508.89 C 1066.84 1451.34 1055.72 1393.99 1043.57 1336.84 C 1037.68 1309.58 1027.59 1262.15 1016.48 1237.24 C 1017.16 1242.05 1017.67 1247.08 1017.99 1251.94 C 1020.92 1296.82 1029.9 1339.94 1039.82 1383.76 C 1048.92 1425.19 1056.73 1459.22 1062.19 1501.52 C 1047.28 1481.2 1035.11 1462.72 1019.01 1442.94 C 962.358 1373.34 899.131 1321.97 824.297 1273.69 C 832.712 1196.62 883.296 1121.93 928.981 1062.07 C 892.538 1087.92 864.909 1130.6 840.709 1167.73 C 818.181 1130.37 803.942 1103.7 777.343 1066.79 C 785.363 1056.01 793.952 1044.06 803.192 1034.41 C 828.008 1008.51 863.187 989.807 895.19 974.125 C 847.868 980.225 826.696 999.16 791.968 1029.53 C 785.872 1002.77 785.007 957.444 785.497 929.747 C 797.756 920.077 810.111 910.3 822.423 900.722 C 835.502 890.548 839.17 888.111 855.724 887.413 z"/>
<path transform="translate(0,0)" fill="rgb(254,254,254)" d="M 1338.73 1498.42 L 1339.96 1498.31 C 1365.81 1496.06 1401.66 1506.12 1421.71 1523.37 C 1436.23 1535.67 1447.7 1551.17 1455.22 1568.65 C 1459.91 1579.8 1462.09 1591.79 1464.1 1603.81 C 1472.09 1651.46 1482.32 1699.17 1489.49 1746.88 C 1491.9 1762.91 1477.64 1798.85 1468.39 1810.94 C 1442.46 1844.83 1399.46 1861.32 1358.54 1863.55 C 1325.67 1863.83 1299.72 1858.7 1272.89 1838.32 C 1240.56 1813.77 1238.89 1790.53 1231.34 1753.72 L 1215.2 1672.77 C 1209.73 1645.03 1204.36 1635.4 1208.07 1605.99 C 1211.63 1577.82 1213.57 1568.72 1232 1545.97 C 1259.24 1512.35 1297.75 1502.68 1338.73 1498.42 z"/>
<path transform="translate(0,0)" fill="rgb(0,0,0)" d="M 1338.57 1562.28 C 1362.61 1558.8 1380.89 1574.17 1389.35 1595.16 C 1399.32 1619.92 1402.45 1642.29 1406.66 1668.19 C 1411.09 1695.43 1420.03 1722.57 1419.22 1750.39 C 1418.13 1784.84 1385.14 1797.76 1356.18 1800.42 C 1300.65 1802.04 1297.21 1743.01 1289.24 1701.72 L 1278.29 1644.97 C 1275.07 1627.47 1272.34 1604.92 1283.34 1590 C 1299.67 1567.83 1313.99 1566.7 1338.57 1562.28 z"/>
<path transform="translate(0,0)" fill="rgb(254,254,254)" d="M 1011.74 1531.2 C 1033.97 1530.67 1057.09 1532.17 1079.5 1532.71 C 1054.15 1569.97 1038.3 1602.3 1015.83 1639.77 C 1016.26 1645.89 1016.2 1652.59 1016.28 1658.78 C 1037.54 1671.75 1063.67 1666.82 1088.72 1681.74 C 1146.86 1716.38 1151.09 1794.45 1116.87 1847.45 C 1103.12 1868.74 1080.78 1881.44 1056.11 1887.84 C 1052.48 1888.79 1048.84 1889.71 1045.2 1890.61 C 1009.51 1899.21 953.527 1894.26 922.446 1873.79 C 897.184 1857.7 885.417 1839.99 877.889 1811.73 C 867.974 1774.51 874.152 1745.73 890.284 1711.33 C 898.071 1696.35 907.297 1683.27 916.207 1668.88 C 936.187 1636.63 954.76 1602.35 975.445 1570.66 C 986.162 1554.25 992.319 1535.7 1011.74 1531.2 z"/>
<path transform="translate(0,0)" fill="rgb(0,0,0)" d="M 993.747 1718.75 C 1025.89 1712.37 1057.15 1733.13 1063.73 1765.23 C 1070.31 1797.33 1049.74 1828.72 1017.68 1835.49 C 985.347 1842.32 953.634 1821.53 946.998 1789.16 C 940.361 1756.79 961.337 1725.2 993.747 1718.75 z"/>
<path transform="translate(0,0)" fill="rgb(254,254,254)" d="M 619.738 1484.29 C 626.905 1483.79 632.991 1485.58 639.872 1487.23 C 693.223 1500.02 747.412 1509.28 801.142 1520.29 C 807.924 1521.68 814.691 1523.93 821.164 1526.35 C 819.177 1529.96 816.563 1534.64 813.79 1537.6 C 793.879 1558.75 775.179 1580.51 757.095 1603.22 C 744.413 1619.15 740.643 1620.26 737.613 1641.04 C 748.346 1668.22 777.747 1673.11 783.157 1706.88 C 802.519 1827.75 689.617 1900.23 588.402 1835.49 C 586.663 1834.32 584.952 1833.1 583.272 1831.84 C 566.476 1819.18 547.611 1788.46 545.589 1767.23 C 544.92 1760.2 543.306 1743.2 547.575 1737.66 C 554.179 1735.67 595.008 1746.02 602.507 1749.44 C 605.113 1753.39 607.762 1759.95 610.15 1764.53 C 615.577 1774.94 622.105 1781.13 630.145 1789.47 C 646.547 1792.54 665.416 1798.73 682.314 1791.75 C 709.141 1780.68 721.987 1736.34 709.719 1710.68 C 696.13 1682.26 662.672 1678.73 634.698 1669.94 C 646.142 1655.81 656.323 1639.77 667.265 1624.98 C 674.865 1614.71 686.289 1604.07 692.082 1592.97 C 694.297 1588.72 694.176 1576.54 694.269 1571.49 C 674.508 1552.18 635.021 1553.94 609.089 1545.79 C 606.835 1545.08 602.349 1543.6 601.384 1541.23 C 597.033 1530.52 606.88 1497.77 610.888 1486.54 C 613.26 1484.28 616.26 1484.58 619.738 1484.29 z"/>
<path transform="translate(0,0)" fill="rgb(254,254,254)" d="M 1786.16 525.9 C 1792.3 525.639 1798.18 527.549 1800.79 533.476 C 1811.14 556.979 1830.33 584.786 1837.8 608.73 C 1844.7 631.4 1842.29 655.885 1831.09 676.772 C 1813.42 709.998 1774.77 732.235 1737.45 732.303 C 1718.98 732.337 1707.8 728.295 1691.92 719.703 C 1683.75 715.281 1678.46 711.336 1672.18 704.563 C 1667.63 699.598 1663.55 694.226 1659.99 688.516 C 1647.97 669.563 1636.64 644.479 1625.31 624.672 C 1624.1 622.545 1623.65 619.199 1623.74 616.7 C 1630.18 606.665 1679.51 582.787 1692.61 575.93 C 1723.94 559.535 1755.13 542.858 1786.16 525.9 z"/>
<path transform="translate(0,0)" fill="rgb(0,0,0)" d="M 1771.33 592.059 C 1778.9 593.327 1783.75 598.607 1787.33 605.23 C 1806.92 641.417 1779.21 678.708 1741.52 682.691 C 1731.69 683.729 1724.62 682.041 1715.33 679.319 C 1704.73 672.641 1684.82 650.853 1688.65 637.43 C 1694.28 630.816 1759.78 597.625 1771.33 592.059 z"/>
<path transform="translate(0,0)" fill="rgb(254,254,254)" d="M 114.071 924.319 C 160.516 925.364 207.216 924.188 253.688 924.364 C 265.082 924.408 285.046 922.409 295.44 924.837 C 298.55 925.563 300.339 926.261 302 929.125 C 306.439 936.775 305.437 962.374 302.383 970.827 C 298.259 982.239 234.655 971.713 222.008 977.619 L 221.636 979.27 C 226.836 989.504 250.832 1007.68 256.814 1016.71 C 265.745 1030.19 224.706 1050.86 222.284 1063.58 C 226.136 1070.61 290.979 1063.07 299.367 1068.96 C 304.016 1072.22 303.615 1083.21 303.765 1088.87 C 305.022 1124.95 297.698 1117.69 265.463 1118.07 C 256.677 1118.17 247.603 1118.02 238.807 1118.01 L 157.04 1117.94 C 147.088 1117.93 114.548 1119.57 108.141 1115.01 C 94.6243 1094.68 185.386 1035.49 187.605 1022.2 C 190.14 1007.02 82.0627 943.233 114.071 924.319 z"/>
<path transform="translate(0,0)" fill="rgb(254,254,254)" d="M 1394.98 181.885 C 1413.17 182.271 1415 208.687 1418.17 223.079 L 1429.25 272.988 C 1435.44 300.265 1435.2 300.756 1463.48 292.279 C 1486.18 285.472 1508.38 277.437 1531.01 270.336 C 1538.77 267.902 1555.95 264.764 1558.02 276.483 C 1558.33 284.195 1543.37 307.241 1539.57 314.323 C 1517.9 354.618 1492.29 392.522 1471.66 433.325 C 1464.39 447.695 1447.26 437.713 1438.35 431.766 C 1422.83 421.421 1417.72 422.537 1427.89 404.951 C 1434.24 394.676 1457.44 357.003 1457.96 348.039 L 1456.71 346.995 C 1451.61 346.77 1422.61 355.962 1413.74 358.204 C 1388.21 364.661 1394.95 312.907 1383.44 304.602 C 1376.4 307.362 1351.89 359.956 1344.23 368.357 C 1338.91 373.346 1326.75 367.3 1321.38 364.115 C 1307.66 355.901 1293.27 353.447 1304.24 334.697 C 1332.23 286.887 1359.37 238.637 1386.91 190.56 C 1388.93 187.048 1391.85 184.378 1394.98 181.885 z"/>
<path transform="translate(0,0)" fill="rgb(254,189,91)" d="M 519.258 582.813 C 523.356 587.143 538.672 586.521 545.951 587.084 C 378.542 778.499 329.906 1030.23 426.126 1267.46 C 429.829 1276.59 438.199 1298.31 443.838 1305.7 C 444.236 1305.48 444.634 1305.26 445.032 1305.04 C 453.384 1322.8 460.262 1340.17 470.806 1357.14 C 471.897 1358.9 471.235 1362.93 471.522 1365.4 C 474.694 1367.18 478.619 1368.89 480.455 1371.83 C 481.182 1375.77 481.034 1376.66 480.802 1380.74 C 486.144 1384.24 486.63 1383.08 491.267 1387.78 C 493.705 1391.55 497.903 1398.61 500.922 1401.48 C 500.719 1403.49 500.198 1404.46 502.772 1406.52 C 509.261 1411.72 546.495 1460.1 550.759 1462.46 C 562.16 1473.43 573.322 1484.65 584.238 1496.1 C 582.45 1504.24 580.571 1514.02 578.457 1521.96 C 568.019 1512.72 532.237 1478.91 524.704 1467.73 C 518.5 1460.87 513.833 1455.44 508.199 1448.13 C 505.691 1446.52 497.981 1436.2 495.582 1433.22 C 299.86 1190.26 308.218 815.474 519.258 582.813 z"/>
<path transform="translate(0,0)" fill="rgb(250,229,189)" d="M 508.199 1448.13 C 515.201 1448.37 524.527 1459.39 525.389 1465.81 L 524.704 1467.73 C 518.5 1460.87 513.833 1455.44 508.199 1448.13 z"/>
<path transform="translate(0,0)" fill="rgb(0,128,129)" d="M 1527.74 584.852 C 1544.45 603.02 1561.71 626.196 1575.66 646.593 C 1644.8 747.71 1684.51 866.031 1690.38 988.382 C 1700.51 1188.87 1622.7 1380.56 1474.8 1516.23 C 1469.55 1521.05 1464.16 1525.98 1458.33 1530.08 C 1452.08 1523.22 1449.34 1519.82 1444.23 1511.97 C 1481.11 1478.5 1507.6 1452.52 1538.62 1412.04 C 1615.53 1310.78 1660.54 1188.9 1667.88 1061.95 C 1675.49 905.424 1636.94 768.9 1545.19 641.148 C 1529.72 619.612 1515.63 605.917 1500.42 586.816 C 1508.29 584.91 1521.26 587.805 1527.74 584.852 z"/>
<path transform="translate(0,0)" fill="rgb(254,254,254)" d="M 626.188 200.286 C 637.644 199.428 644.684 199.559 656.72 202.558 C 671.159 206.281 689.35 214.865 698.151 227.181 C 704.612 236.223 688.049 243.688 682.354 246.69 C 678.532 248.704 674.618 250.592 670.813 252.515 C 660.038 257.96 652.539 251.608 642.636 247.89 C 633.463 244.17 622.882 247.426 614.139 251.079 C 582.388 264.349 575.925 294.073 589.962 323.497 C 604.051 353.029 634.037 366.013 664.039 350.069 C 688.067 337.3 682.809 322.256 689.848 301.623 C 696.877 294.556 710.932 287.808 720.29 284.106 C 731.882 279.52 733.294 291.669 734.822 299.759 C 742.657 352.717 700.45 393.495 651.477 403.714 C 559.2 422.968 494.631 304.528 556.784 236.269 C 574.65 216.648 599.991 203.845 626.188 200.286 z"/>
<path transform="translate(0,0)" fill="rgb(254,254,254)" d="M 1078.66 105.424 C 1085.1 104.805 1091.6 104.95 1098.01 105.855 C 1123.68 109.671 1162.45 130.883 1161.19 164.597 C 1161.02 169.006 1157.84 171.169 1154.32 173.55 C 1133.3 172.7 1118.28 174.42 1105.74 156.096 C 1099.73 147.32 1069.54 147.597 1063.67 156.645 C 1044.19 186.67 1096.84 187.797 1113.26 193.93 C 1124.44 197.873 1134.13 200.067 1143.86 207.68 C 1153.63 215.316 1159.82 226.635 1160.98 238.977 C 1163.26 264.474 1152.83 285.696 1130.27 297.928 C 1116.27 305.524 1104.81 306.556 1089.35 307.974 C 1054.59 308.653 1008.66 292.771 1003.18 250.903 C 1002.85 248.364 1004.43 243.027 1006.94 241.289 C 1016.73 234.495 1036.56 239.138 1047.26 242.581 C 1059.26 252.631 1065.34 263.092 1083.03 263.446 C 1092.99 263.645 1114.85 258.342 1111.59 244.488 C 1106.82 229.37 1075.18 228.054 1060.05 224.697 C 1012.46 214.138 996.246 167.465 1024.58 128.742 C 1036.07 113.052 1058.46 107.093 1078.66 105.424 z"/>
<path transform="translate(0,0)" fill="rgb(254,254,254)" d="M 354.27 701.417 C 355.141 701.343 356.013 701.279 356.886 701.226 C 361.291 700.972 363.547 700.75 366.887 703.725 C 368.798 707.867 368.056 712.12 366.63 716.124 C 363.124 725.971 359.973 746.406 347.88 748.577 C 343.835 749.303 337.885 750.628 334.617 752.651 C 331.409 754.637 328.714 757.352 326.752 760.574 C 318.689 774.112 313.569 801.38 307.423 816.461 C 301.953 829.882 326.14 840.271 320.988 853.877 C 318.352 860.837 311.341 884.815 306.484 887.738 C 295.754 887.657 251.294 841.81 238.527 830.748 C 226.574 818.932 151.704 752.113 149.862 742.175 C 148.979 737.411 150.332 731.81 153.242 727.946 C 155.328 725.177 157.664 723.998 160.973 723.216 C 183.169 717.972 207.58 717.738 230.318 715.316 L 354.27 701.417 z"/>
<path transform="translate(0,0)" fill="rgb(0,0,0)" d="M 259.622 757.384 C 270.838 756.329 279.66 755.553 275.268 771.922 C 274.286 775.578 268.759 787.56 265.664 789.106 C 262.521 789.251 261 787.84 258.278 786.15 C 253.186 781.606 235.562 768.009 235.883 762.256 C 239.991 757.609 253.058 757.819 259.622 757.384 z"/>
<path transform="translate(0,0)" fill="rgb(254,254,254)" d="M 1744.83 936.691 C 1759.16 935.911 1776.43 946.794 1789.35 953.095 L 1853.91 984.59 C 1878.18 996.521 1911.46 1009.87 1934.01 1024.04 C 1936.29 1025.47 1937.86 1027.01 1939.05 1029.43 C 1940.93 1033.25 1942.08 1038.52 1940.49 1042.63 C 1935.45 1055.66 1878.67 1075.2 1863 1081.98 C 1833.88 1095.3 1804.58 1108.22 1775.09 1120.72 C 1767.74 1123.88 1746.5 1137.97 1741.41 1127.52 C 1736.98 1117.63 1739.86 1103.69 1741.01 1093.34 C 1743 1075.56 1765.43 1081.05 1765.53 1061.06 C 1765.63 1041.99 1767.49 1022.12 1766.22 1003.37 C 1765.45 992.006 1751.29 989.175 1745.49 982.053 C 1739.57 973.66 1743.1 946.714 1744.83 936.691 z"/>
<path transform="translate(0,0)" fill="rgb(0,0,0)" d="M 1813.78 1018.5 C 1821.74 1018.75 1849.53 1029.71 1851.73 1037.43 C 1849.39 1040 1845.1 1041.29 1841.75 1042.66 C 1835.6 1045.16 1822.96 1051.93 1816.87 1051.24 C 1807.26 1050.16 1811.69 1024.09 1813.78 1018.5 z"/>
<path transform="translate(0,0)" fill="rgb(254,254,254)" d="M 905.524 111.307 C 907.645 111.103 910.913 110.993 912.831 111.824 C 916.289 113.324 918.819 120.674 919.66 124.353 C 923.28 140.189 926.304 157.674 929.223 173.664 C 933.227 195.598 944.567 234.967 943.857 255.936 C 943.527 265.47 940.837 274.775 936.027 283.014 C 906.287 334.957 810.337 340.132 792.324 275.761 C 784.298 247.078 780.545 217.368 773.088 188.5 C 771.843 181.582 769.755 170.005 768.11 163.557 C 762.766 142.599 768.648 137.091 789.232 134.443 C 796.04 133.567 801.92 131.272 808.926 134.245 C 813.852 139.198 816.216 159.4 817.857 167.268 C 821.999 187.127 825.071 206.207 830.502 226.012 C 834.644 241.114 834.899 266.754 849.937 275.347 C 861.915 281.022 890.448 274.418 894.549 259.533 C 900.632 237.457 867.307 134.975 873.493 120.459 C 880.189 113.88 895.864 112.725 905.524 111.307 z"/>
<path transform="translate(0,0)" fill="rgb(254,254,254)" d="M 1644.63 351.682 C 1653.85 352.715 1722.43 425.991 1727.76 436.783 C 1728.07 443.953 1722.3 445.327 1718.55 450.086 C 1701.27 471.981 1697.15 467.037 1679.14 448.455 C 1671.13 440.198 1658.38 424.852 1647.65 419.041 C 1605.82 439.878 1667.61 460.524 1669.27 484.081 C 1669.23 491.084 1661.26 496.512 1657.38 500.516 C 1640.22 518.238 1633.33 507.013 1620.76 492.439 C 1615.13 485.902 1605.78 472.21 1596.48 471.642 C 1589.74 471.231 1584.99 476.729 1580.45 481.127 C 1570.66 492.981 1576.09 495.893 1585.06 505.218 C 1593.69 514.193 1603.17 523.049 1611.17 532.5 C 1616.51 538.803 1621.74 546.706 1613.69 553.069 C 1606.88 559.052 1598.32 570.725 1588.27 571.075 C 1582.16 567.353 1577.47 562.532 1572.68 557.273 C 1552.5 535.12 1531.3 513.912 1510.99 491.913 C 1507.8 488.465 1507.91 485.167 1508.4 480.783 C 1511.24 475.898 1634.36 359.014 1644.63 351.682 z"/>
<path transform="translate(0,0)" fill="rgb(254,254,254)" d="M 300.626 454.858 C 310.966 454.255 311.64 458.533 318.638 462.262 C 353.481 480.827 322.964 491.088 316.446 513.139 C 314.664 519.165 333.044 530.722 338.772 534.278 C 361.696 548.506 384.526 564.182 406.811 579.537 C 417.462 586.892 427.653 592.302 436.39 601.941 C 433.202 609.932 418.644 636.498 410.776 637.746 C 401.243 639.258 378.026 620.653 369.078 615.026 C 345.547 599.762 322.896 582.218 299.024 567.495 C 296.507 565.942 288.391 562.158 285.885 562.637 C 272.544 565.721 268.741 592.486 255.867 595.024 C 250.399 596.102 224.728 579.251 224.1 572.178 C 223.855 569.424 226.428 563.648 228.091 561.234 C 239.302 544.961 250.816 528.809 261.707 512.297 C 272.422 497.13 288.859 467.141 300.626 454.858 z"/>
<path transform="translate(0,0)" fill="rgb(254,254,254)" d="M 1895.27 764.298 C 1896.45 764.435 1897.96 764.838 1899.08 765.225 C 1901.71 766.163 1903.82 768.167 1904.89 770.743 C 1905.63 772.539 1909.59 789.061 1909.95 791.275 C 1911.87 803.274 1926.1 843.966 1921.34 854.513 C 1915.93 859.307 1906.41 861.168 1900.26 862.26 C 1880.49 866.652 1883.64 858.516 1873.89 847.176 C 1869.37 844.162 1857.76 848.513 1853.72 849.508 C 1829.93 855.36 1806.28 860.43 1782.59 866.537 C 1768.92 868.827 1776.51 886.486 1771.51 893.408 C 1768.67 897.333 1746.56 900.999 1740.72 902.684 C 1736.78 901.217 1734.05 899.391 1732.5 895.385 C 1727 880.531 1724.62 863.984 1721.12 848.489 C 1718.85 838.386 1711.23 817.394 1714.47 808.202 C 1719.08 802.801 1731.48 800.483 1738.31 799.568 C 1757.03 797.058 1752.2 810.732 1762.54 817.045 C 1766.18 819.264 1770.68 818.314 1774.54 817.437 C 1787.72 814.45 1856.31 799.777 1860.94 793.566 C 1864.72 788.508 1860.53 780.647 1864.53 774.995 C 1870.21 766.967 1886.28 765.82 1895.27 764.298 z"/>
<path transform="translate(0,0)" fill="rgb(254,254,254)" d="M 426.077 327.801 C 432.834 328.165 457.454 351.774 451.373 360.106 C 442.271 373.338 443.763 376.691 454.677 386.99 C 473.752 404.99 491.77 429.757 512.005 446.083 C 516.675 447.787 530.938 440.283 536.711 437.923 C 542.592 441.993 558.19 457.895 559.898 465.459 C 558.727 471.238 552.997 477.247 548.656 481.123 C 530.732 497.13 513.365 515.453 494.847 530.633 C 493.139 530.957 491.495 531.303 489.757 530.887 C 484.052 529.522 474.935 518.941 471.485 514.185 C 460.723 499.343 473.732 497.368 474.589 486.127 C 474.886 482.23 473.281 479.067 470.849 476.171 C 463.556 467.488 412.592 412.977 406.791 411.48 C 399.194 409.521 392.33 419.645 384.825 417.713 C 378.462 416.074 366.28 401.852 363.027 396.027 C 361.913 394.032 360.73 390.786 361.565 388.547 C 364.684 380.182 416.015 333.491 426.077 327.801 z"/>
<path transform="translate(0,0)" fill="url(#Gradient4)" d="M 755.628 409.225 C 857.261 361.05 985.832 348.428 1096.6 358.111 C 1103.82 362.803 1111.83 361.027 1119.94 362.75 C 1137.41 366.459 1158.19 368.631 1175.04 374.071 C 1170.89 383.616 1172.3 386.568 1169.92 392.692 C 1060.12 367.158 945.545 370.726 837.539 403.043 C 816.96 408.989 799.427 417.033 780.102 423.332 C 780.073 422.811 780.152 423.203 779.511 421.885 C 775.405 422.725 766.148 427.497 761.868 429.459 C 754.475 426.972 753.258 415.984 755.628 409.225 z"/>
<path transform="translate(0,0)" fill="url(#Gradient3)" d="M 519.258 582.813 C 585.318 505.153 664.449 452.346 755.628 409.225 C 753.258 415.984 754.475 426.972 761.868 429.459 C 766.148 427.497 775.405 422.725 779.511 421.885 C 780.152 423.203 780.073 422.811 780.102 423.332 C 764.628 430.59 748.614 436.947 733.43 444.705 C 658.992 482.738 603.16 527.089 545.951 587.084 C 538.672 586.521 523.356 587.143 519.258 582.813 z"/>
<path transform="translate(0,0)" fill="url(#Gradient2)" d="M 1096.6 358.111 C 1186.54 365.563 1306.99 407.244 1381.4 458.315 C 1377.4 464.605 1378.75 470.094 1372.26 474.482 L 1367.19 475.261 C 1354.91 466.659 1335.82 456.809 1322.36 449.701 C 1319.6 438.991 1300.56 437.33 1291.48 436.364 L 1290.93 434.701 C 1285.19 430.509 1274.97 426.913 1268.16 423.982 C 1235.43 409.895 1204.42 401.127 1169.92 392.692 C 1172.3 386.568 1170.89 383.616 1175.04 374.071 C 1158.19 368.631 1137.41 366.459 1119.94 362.75 C 1111.83 361.027 1103.82 362.803 1096.6 358.111 z"/>
<path transform="translate(0,0)" fill="url(#Gradient1)" d="M 1381.4 458.315 C 1424.53 483.486 1496.79 545.268 1527.74 584.852 C 1521.26 587.805 1508.29 584.91 1500.42 586.816 C 1466.59 546.816 1411.09 503.338 1367.19 475.261 L 1372.26 474.482 C 1378.75 470.094 1377.4 464.605 1381.4 458.315 z"/>
<path transform="translate(0,0)" fill="rgb(254,254,254)" d="M 955.215 961.543 C 974.823 963.045 998.424 968.748 1016.35 976.849 C 998.863 991.289 987.776 1001.12 973.252 1018.91 C 965.55 1028.52 958.657 1039.32 951.796 1049.58 C 935.369 1020.97 936.3 988.793 955.215 961.543 z"/>
<path transform="translate(0,0)" fill="rgb(254,254,254)" d="M 1093.57 1072.96 C 1096.17 1074.24 1110.14 1095.24 1115.04 1100.17 C 1130.58 1115.81 1144.61 1123.8 1163.48 1133.99 C 1153.99 1137.8 1141.66 1141.65 1131.78 1145.02 L 1106.3 1153.31 C 1095.29 1133.33 1080.6 1110.15 1068.72 1090.26 C 1076.95 1085.13 1085.61 1078.65 1093.57 1072.96 z"/>
<path transform="translate(0,0)" fill="rgb(254,254,254)" d="M 1095.81 968.284 C 1110.68 985.907 1110.44 1032.11 1095.22 1050.2 C 1094.88 1050.61 1093.4 1051.28 1092.85 1051.57 C 1079.92 1050.61 1068.83 1049.31 1056.08 1046.75 C 1048.29 1045.19 1039.66 1042.58 1032.07 1041.63 C 1037.02 1034.07 1057.16 1018.24 1066.24 1008.14 C 1078.64 993.576 1085.41 984.033 1095.81 968.284 z"/>
<path transform="translate(0,0)" fill="rgb(254,189,91)" d="M 774.71 1617.9 C 809.68 1635.11 860.604 1647.38 898.357 1656.04 C 894.478 1663.41 889.168 1667.81 885.49 1676.4 C 858.411 1673.44 790.194 1651.34 763.882 1638.43 C 761.472 1637.25 761.727 1636.19 761.46 1634.32 C 764.037 1627.48 769.477 1623.01 774.71 1617.9 z"/>
<path transform="translate(0,0)" fill="rgb(254,254,254)" d="M 993.732 1001.97 C 996.812 1005.83 997.547 1026.11 999.098 1032.95 C 1003.92 1054.2 1011 1071.65 1019.04 1091.78 C 1006.63 1090.22 1000.94 1089.09 989.353 1084.53 C 974.053 1077.21 963.443 1067.81 953.907 1053.75 C 962.08 1037.14 979.271 1013.46 993.732 1001.97 z"/>
<path transform="translate(0,0)" fill="rgb(254,254,254)" d="M 1015.66 925.312 C 1018.29 924.933 1024.54 924.966 1027.47 924.897 C 1037.1 941.72 1043.45 967.4 1045.55 986.603 C 1031.81 979.945 1019.76 974.186 1005.29 969.097 C 990.288 964.034 973.561 960.987 957.997 957.836 C 974.213 937.422 990.015 929.258 1015.66 925.312 z"/>
<path transform="translate(0,0)" fill="rgb(254,254,254)" d="M 1002.43 1030.4 C 1011.7 1035.22 1021.14 1039.7 1030.74 1043.81 C 1044.36 1048.08 1052.45 1049.96 1066.63 1051.91 C 1072.45 1052.7 1085.91 1053.94 1090.83 1055.15 C 1089.92 1058.79 1087.08 1062.72 1084.58 1065.45 C 1068.31 1083.18 1048.31 1090.62 1025.07 1092.18 C 1013.76 1078.2 1005.62 1047.83 1002.43 1030.4 z"/>
<path transform="translate(0,0)" fill="rgb(254,254,254)" d="M 1032.32 925.518 C 1051.5 928.501 1095.34 945.236 1091.81 969.225 C 1089.26 971.793 1085.28 978.432 1082.89 981.773 C 1076.97 990.185 1070.67 998.321 1064.02 1006.16 C 1060.11 1010.53 1057.44 1012.63 1052.98 1016.29 C 1050.7 1005.43 1050.27 991.408 1048.2 979.713 C 1044.65 959.616 1039.06 944.614 1032.32 925.518 z"/>
<path transform="translate(0,0)" fill="rgb(0,128,129)" d="M 1181.07 1648.21 L 1184.53 1647.9 C 1188.8 1650.69 1190.16 1663.54 1191.64 1669.83 C 1170.9 1674.84 1147.07 1680.08 1126.01 1682.75 L 1120.61 1677.56 C 1114.53 1673.23 1107.87 1667.74 1101.94 1663.08 C 1130.88 1659.01 1152.67 1654.72 1181.07 1648.21 z"/>
</svg>